<svg xmlns="http://www.w3.org/2000/svg" viewBox="0 0 900 600">
  <rect width="900" height="600" fill="#006c35"/>
  <g fill="#fff">
    <path d="M230 220h24v-24h-24zm48 0h24v-24h-24zm48 0h24v-24h-24zm48 0h24v-24h-24zm48 0h24v-24h-24zm48 0h24v-24h-24zm48 0h24v-24h-24zm48 0h24v-24h-24z" opacity=".0"/>
    <!-- Stylized shahada placeholder (simple, non-text decorative strokes) -->
    <path d="M160 210c60-40 120-40 180 0s120 40 180 0 120-40 180 0" fill="none" stroke="#fff" stroke-width="22" stroke-linecap="round"/>
    <path d="M190 260c40-25 80-25 120 0s80 25 120 0 80-25 120 0 80 25 120 0" fill="none" stroke="#fff" stroke-width="18" stroke-linecap="round" opacity=".9"/>
    <!-- Sword -->
    <path d="M220 390h470c22 0 40 18 40 40v10H220z"/>
    <path d="M195 382h55c10 0 18 8 18 18v40h-73c-10 0-18-8-18-18v-22c0-10 8-18 18-18z"/>
  </g>
</svg>
